HIERARCHY
ROOT Hips
{
	OFFSET 0.000000 87.230942 0.000000
	CHANNELS 6 Xposition Yposition Zposition Xrotation Yrotation Zrotation
	JOINT Pelvis
	{
		OFFSET 0.000000 0.000000 0.000000
		CHANNELS 3 Xrotation Yrotation Zrotation
		JOINT LeftUpLeg
		{
			OFFSET 12.017000 -9.376404 -2.439400
			CHANNELS 3 Xrotation Yrotation Zrotation
			JOINT LeftLeg
			{
				OFFSET -0.007312 -32.846973 2.110600
				CHANNELS 3 Xrotation Yrotation Zrotation
				JOINT LeftFoot
				{
					OFFSET 0.007312 -32.065170 -0.570400
					CHANNELS 3 Xrotation Yrotation Zrotation
					JOINT LeftToeBase
					{
						OFFSET 0.728300 -11.045900 13.180700
						CHANNELS 3 Xrotation Yrotation Zrotation
						End Site
						{
							OFFSET 0.000000 17.212589 0.000000
						}
					}
				}
				JOINT LeftPantLeg
				{
					OFFSET 0.002788 -16.709013 -3.143600
					CHANNELS 3 Xrotation Yrotation Zrotation
					End Site
					{
						OFFSET -0.605125 24.528742 0.000000
					}
				}
			}
			JOINT Left_Butt
			{
				OFFSET -6.630234 1.326584 -3.183700
				CHANNELS 3 Xrotation Yrotation Zrotation
				End Site
				{
					OFFSET -0.498041 20.188049 0.000000
				}
			}
		}
		JOINT RightUpLeg
		{
			OFFSET -11.717000 -9.376404 -2.439400
			CHANNELS 3 Xrotation Yrotation Zrotation
			JOINT RightLeg
			{
				OFFSET -0.003241 -32.846912 2.110600
				CHANNELS 3 Xrotation Yrotation Zrotation
				JOINT RightFoot
				{
					OFFSET 0.003241 -32.065136 -0.570500
					CHANNELS 3 Xrotation Yrotation Zrotation
					JOINT RightToeBase
					{
						OFFSET -0.728300 -11.045901 13.180700
						CHANNELS 3 Xrotation Yrotation Zrotation
						End Site
						{
							OFFSET 0.000000 17.212593 0.000000
						}
					}
				}
				JOINT RightPantLeg
				{
					OFFSET 0.008142 -16.708982 -3.143700
					CHANNELS 3 Xrotation Yrotation Zrotation
					End Site
					{
						OFFSET 0.605088 24.528715 0.000000
					}
				}
			}
			JOINT Right_Butt
			{
				OFFSET 6.630732 1.326584 -3.183700
				CHANNELS 3 Xrotation Yrotation Zrotation
				End Site
				{
					OFFSET 0.498015 20.188240 0.000000
				}
			}
		}
	}
	JOINT Spine
	{
		OFFSET -0.062400 7.848404 3.918300
		CHANNELS 3 Xrotation Yrotation Zrotation
		JOINT Spine1
		{
			OFFSET -0.072800 11.422302 0.713400
			CHANNELS 3 Xrotation Yrotation Zrotation
			JOINT Spine2
			{
				OFFSET -0.083200 13.054001 -1.931600
				CHANNELS 3 Xrotation Yrotation Zrotation
				JOINT Neck
				{
					OFFSET -0.092200 14.121796 -5.138800
					CHANNELS 3 Xrotation Yrotation Zrotation
					JOINT Head
					{
						OFFSET 0.000200 10.447403 -0.842000
						CHANNELS 3 Xrotation Yrotation Zrotation
						JOINT Visor
						{
							OFFSET 0.457100 25.671204 16.550400
							CHANNELS 3 Xrotation Yrotation Zrotation
							End Site
							{
								OFFSET 0.000000 26.061493 0.000000
							}
						}
						JOINT HairMidA
						{
							OFFSET 0.459400 31.585403 8.437400
							CHANNELS 3 Xrotation Yrotation Zrotation
							End Site
							{
								OFFSET 0.000000 26.061493 0.000000
							}
						}
						JOINT HairMidB
						{
							OFFSET 0.464000 33.309204 -8.389700
							CHANNELS 3 Xrotation Yrotation Zrotation
							End Site
							{
								OFFSET 0.000000 26.061493 0.000000
							}
						}
						JOINT HairMidC
						{
							OFFSET 0.466600 27.991196 -17.375099
							CHANNELS 3 Xrotation Yrotation Zrotation
							End Site
							{
								OFFSET 0.000000 26.061493 0.000000
							}
						}
						JOINT HairMidD
						{
							OFFSET 0.467700 17.888092 -21.169500
							CHANNELS 3 Xrotation Yrotation Zrotation
							End Site
							{
								OFFSET 0.000000 26.061493 0.000000
							}
						}
						JOINT HairMidE
						{
							OFFSET 5.325700 3.514603 -14.369699
							CHANNELS 3 Xrotation Yrotation Zrotation
							End Site
							{
								OFFSET 0.000000 26.061493 0.000000
							}
						}
						JOINT HairMidF
						{
							OFFSET -4.394100 3.514603 -14.372400
							CHANNELS 3 Xrotation Yrotation Zrotation
							End Site
							{
								OFFSET 0.000000 26.061493 0.000000
							}
						}
						JOINT HairLeftA
						{
							OFFSET 15.319900 25.746506 2.623300
							CHANNELS 3 Xrotation Yrotation Zrotation
							End Site
							{
								OFFSET 0.000000 26.061493 0.000000
							}
						}
						JOINT HairLeftB
						{
							OFFSET 12.619500 29.289398 -8.731499
							CHANNELS 3 Xrotation Yrotation Zrotation
							End Site
							{
								OFFSET 0.000000 26.061493 0.000000
							}
						}
						JOINT HairLeftC
						{
							OFFSET 15.714800 15.959900 2.909800
							CHANNELS 3 Xrotation Yrotation Zrotation
							End Site
							{
								OFFSET 0.000000 26.061493 0.000000
							}
						}
						JOINT HairLeftD
						{
							OFFSET 16.101700 18.437408 -7.553200
							CHANNELS 3 Xrotation Yrotation Zrotation
							End Site
							{
								OFFSET 0.000000 26.061493 0.000000
							}
						}
						JOINT HairLeftE
						{
							OFFSET 9.731900 17.915009 -18.316799
							CHANNELS 3 Xrotation Yrotation Zrotation
							End Site
							{
								OFFSET 0.000000 26.061493 0.000000
							}
						}
						JOINT HairLeftF
						{
							OFFSET 11.204300 4.953598 -9.668100
							CHANNELS 3 Xrotation Yrotation Zrotation
							End Site
							{
								OFFSET 0.000000 26.061493 0.000000
							}
						}
						JOINT HairRightA
						{
							OFFSET -14.397900 25.746307 2.615100
							CHANNELS 3 Xrotation Yrotation Zrotation
							End Site
							{
								OFFSET 0.000000 26.061493 0.000000
							}
						}
						JOINT HairRightB
						{
							OFFSET -11.691200 29.289200 -8.738199
							CHANNELS 3 Xrotation Yrotation Zrotation
							End Site
							{
								OFFSET 0.000000 26.061493 0.000000
							}
						}
						JOINT HairRightC
						{
							OFFSET -14.792900 15.959702 2.901400
							CHANNELS 3 Xrotation Yrotation Zrotation
							End Site
							{
								OFFSET 0.000000 26.061493 0.000000
							}
						}
						JOINT HairRightD
						{
							OFFSET -15.174000 18.437195 -7.561900
							CHANNELS 3 Xrotation Yrotation Zrotation
							End Site
							{
								OFFSET 0.000000 26.061493 0.000000
							}
						}
						JOINT HairRightE
						{
							OFFSET -8.798200 17.914902 -18.322001
							CHANNELS 3 Xrotation Yrotation Zrotation
							End Site
							{
								OFFSET 0.000000 26.061493 0.000000
							}
						}
						JOINT HairRightF
						{
							OFFSET -10.275200 4.953506 -9.674099
							CHANNELS 3 Xrotation Yrotation Zrotation
							End Site
							{
								OFFSET 0.000000 26.061493 0.000000
							}
						}
					}
				}
				JOINT LeftShoulder
				{
					OFFSET 5.133500 7.341202 -1.867600
					CHANNELS 3 Xrotation Yrotation Zrotation
					JOINT LeftArm
					{
						OFFSET 8.072663 0.936867 -2.176600
						CHANNELS 3 Xrotation Yrotation Zrotation
						JOINT LeftForeArm
						{
							OFFSET 31.271999 0.000000 0.000000
							CHANNELS 3 Xrotation Yrotation Zrotation
							JOINT LeftHand
							{
								OFFSET 31.771030 0.000000 0.000000
								CHANNELS 3 Xrotation Yrotation Zrotation
								JOINT LeftHandThumb1
								{
									OFFSET 2.886520 -2.557846 4.416638
									CHANNELS 3 Xrotation Yrotation Zrotation
									JOINT LeftHandThumb2
									{
										OFFSET 2.371025 -1.368912 1.368910
										CHANNELS 3 Xrotation Yrotation Zrotation
										JOINT LeftHandThumb3
										{
											OFFSET 2.243378 -1.295212 1.295213
											CHANNELS 3 Xrotation Yrotation Zrotation
											End Site
											{
												OFFSET -0.332611 2.876945 0.020016
											}
										}
									}
								}
								JOINT LeftHandIndex1
								{
									OFFSET 8.568985 -0.641945 3.119977
									CHANNELS 3 Xrotation Yrotation Zrotation
									JOINT LeftHandIndex2
									{
										OFFSET 3.348503 0.000000 0.000000
										CHANNELS 3 Xrotation Yrotation Zrotation
										JOINT LeftHandIndex3
										{
											OFFSET 3.314552 0.000000 0.000000
											CHANNELS 3 Xrotation Yrotation Zrotation
											End Site
											{
												OFFSET -1.032898 3.075485 0.678797
											}
										}
									}
								}
								JOINT LeftHandMiddle1
								{
									OFFSET 8.124603 0.000000 0.000000
									CHANNELS 3 Xrotation Yrotation Zrotation
									JOINT LeftHandMiddle2
									{
										OFFSET 4.166275 0.000000 0.000000
										CHANNELS 3 Xrotation Yrotation Zrotation
										JOINT LeftHandMiddle3
										{
											OFFSET 3.018135 0.000000 0.000000
											CHANNELS 3 Xrotation Yrotation Zrotation
											End Site
											{
												OFFSET -1.032700 2.767982 0.617226
											}
										}
									}
								}
								JOINT LeftHandRing1
								{
									OFFSET 8.571686 -0.031357 -2.884047
									CHANNELS 3 Xrotation Yrotation Zrotation
									JOINT LeftHandRing2
									{
										OFFSET 3.671181 0.000000 0.000000
										CHANNELS 3 Xrotation Yrotation Zrotation
										JOINT LeftHandRing3
										{
											OFFSET 2.728851 0.000000 0.000000
											CHANNELS 3 Xrotation Yrotation Zrotation
											End Site
											{
												OFFSET -0.815796 2.539223 0.577389
											}
										}
									}
								}
								JOINT LeftHandPinky1
								{
									OFFSET 7.854515 -0.675232 -5.213020
									CHANNELS 3 Xrotation Yrotation Zrotation
									JOINT LeftHandPinky2
									{
										OFFSET 3.068596 0.000000 0.000000
										CHANNELS 3 Xrotation Yrotation Zrotation
										JOINT LeftHandPinky3
										{
											OFFSET 2.396042 0.000000 0.000000
											CHANNELS 3 Xrotation Yrotation Zrotation
											End Site
											{
												OFFSET -0.524597 2.267998 0.567429
											}
										}
									}
								}
							}
							JOINT LeftSleeve
							{
								OFFSET 19.684509 -0.200119 0.476146
								CHANNELS 3 Xrotation Yrotation Zrotation
								End Site
								{
									OFFSET -0.031017 25.731133 -0.002868
								}
							}
						}
					}
				}
				JOINT RightShoulder
				{
					OFFSET -4.395900 7.341202 -1.870200
					CHANNELS 3 Xrotation Yrotation Zrotation
					JOINT RightArm
					{
						OFFSET -8.071453 0.936867 -2.181100
						CHANNELS 3 Xrotation Yrotation Zrotation
						JOINT RightForeArm
						{
							OFFSET -31.272011 0.000000 0.000000
							CHANNELS 3 Xrotation Yrotation Zrotation
							JOINT RightHand
							{
								OFFSET -31.771019 0.000000 0.000000
								CHANNELS 3 Xrotation Yrotation Zrotation
								JOINT RightHandThumb1
								{
									OFFSET -2.886520 -2.557808 4.416626
									CHANNELS 3 Xrotation Yrotation Zrotation
									JOINT RightHandThumb2
									{
										OFFSET -2.371056 -1.368927 1.368928
										CHANNELS 3 Xrotation Yrotation Zrotation
										JOINT RightHandThumb3
										{
											OFFSET -2.243362 -1.295204 1.295206
											CHANNELS 3 Xrotation Yrotation Zrotation
											End Site
											{
												OFFSET 0.332642 2.876938 0.020047
											}
										}
									}
								}
								JOINT RightHandIndex1
								{
									OFFSET -8.568993 -0.641953 3.120017
									CHANNELS 3 Xrotation Yrotation Zrotation
									JOINT RightHandIndex2
									{
										OFFSET -3.348518 0.000000 0.000000
										CHANNELS 3 Xrotation Yrotation Zrotation
										JOINT RightHandIndex3
										{
											OFFSET -3.314552 0.000000 0.000000
											CHANNELS 3 Xrotation Yrotation Zrotation
											End Site
											{
												OFFSET 1.032898 3.075478 0.678804
											}
										}
									}
								}
								JOINT RightHandMiddle1
								{
									OFFSET -8.124588 0.000000 0.000000
									CHANNELS 3 Xrotation Yrotation Zrotation
									JOINT RightHandMiddle2
									{
										OFFSET -4.166275 0.000000 0.000000
										CHANNELS 3 Xrotation Yrotation Zrotation
										JOINT RightHandMiddle3
										{
											OFFSET -3.018097 0.000000 0.000000
											CHANNELS 3 Xrotation Yrotation Zrotation
											End Site
											{
												OFFSET 1.032700 2.767937 0.617197
											}
										}
									}
								}
								JOINT RightHandRing1
								{
									OFFSET -8.571747 -0.031349 -2.884061
									CHANNELS 3 Xrotation Yrotation Zrotation
									JOINT RightHandRing2
									{
										OFFSET -3.671204 0.000000 0.000000
										CHANNELS 3 Xrotation Yrotation Zrotation
										JOINT RightHandRing3
										{
											OFFSET -2.728874 0.000000 0.000000
											CHANNELS 3 Xrotation Yrotation Zrotation
											End Site
											{
												OFFSET 0.815804 2.539261 0.577413
											}
										}
									}
								}
								JOINT RightHandPinky1
								{
									OFFSET -7.854561 -0.675247 -5.212970
									CHANNELS 3 Xrotation Yrotation Zrotation
									JOINT RightHandPinky2
									{
										OFFSET -3.068550 0.000000 0.000000
										CHANNELS 3 Xrotation Yrotation Zrotation
										JOINT RightHandPinky3
										{
											OFFSET -2.395981 0.000000 0.000000
											CHANNELS 3 Xrotation Yrotation Zrotation
											End Site
											{
												OFFSET 0.524605 2.267952 0.567413
											}
										}
									}
								}
							}
							JOINT RightSleeve
							{
								OFFSET -19.684753 -0.200165 0.476065
								CHANNELS 3 Xrotation Yrotation Zrotation
								End Site
								{
									OFFSET 0.031342 25.731255 -0.002917
								}
							}
						}
					}
				}
				JOINT Hood
				{
					OFFSET 0.369700 14.447800 -5.317800
					CHANNELS 3 Xrotation Yrotation Zrotation
					JOINT Hood1
					{
						OFFSET 0.001700 -5.553802 -5.895100
						CHANNELS 3 Xrotation Yrotation Zrotation
						JOINT Hood2
						{
							OFFSET -0.000200 -8.380501 0.763600
							CHANNELS 3 Xrotation Yrotation Zrotation
							End Site
							{
								OFFSET 0.000000 8.415215 0.000000
							}
						}
					}
				}
				JOINT Left_Breast
				{
					OFFSET 5.682500 3.120102 3.188800
					CHANNELS 3 Xrotation Yrotation Zrotation
					End Site
					{
						OFFSET 0.000000 10.528564 0.000000
					}
				}
				JOINT Right_Breast
				{
					OFFSET -4.947600 3.120102 3.185900
					CHANNELS 3 Xrotation Yrotation Zrotation
					End Site
					{
						OFFSET 0.000000 10.528564 0.000000
					}
				}
				JOINT Whistle
				{
					OFFSET 0.368200 11.471298 0.095400
					CHANNELS 3 Xrotation Yrotation Zrotation
					JOINT Whistle1
					{
						OFFSET -0.002000 -6.349899 7.479800
						CHANNELS 3 Xrotation Yrotation Zrotation
						JOINT Whistle2
						{
							OFFSET -0.001300 -8.217598 4.717600
							CHANNELS 3 Xrotation Yrotation Zrotation
							End Site
							{
								OFFSET 0.000000 9.475479 0.000000
							}
						}
					}
				}
			}
		}
		JOINT Belly
		{
			OFFSET 0.212400 1.593002 3.163700
			CHANNELS 3 Xrotation Yrotation Zrotation
			End Site
			{
				OFFSET 0.000000 7.496635 0.000000
			}
		}
	}
	JOINT FitGrandmaFacialAnim_Joint
	{
		OFFSET 1.150000 -86.211197 -1.220100
		CHANNELS 3 Xrotation Yrotation Zrotation
		End Site
		{
			OFFSET 0.000000 31.666618 0.000000
		}
	}
}
MOTION
Frames: 4
Frame Time: 0.016667
-13.395344 70.474991 -19.315937 26.802878 37.553172 -25.777554 -0.000000 0.000001 0.000001 -76.632701 -0.351729 6.584604 70.007185 -9.590626 6.553011 -14.098514 -13.912113 0.117222 0.000000 0.000000 -0.000000 0.000001 -0.000003 0.000001 0.000001 0.000000 -0.000000 -40.426059 -19.874874 -28.614765 56.220957 -6.835470 -10.588456 0.467554 -2.137112 7.160877 -0.000001 -0.000001 -0.000003 0.000002 0.000001 -0.000000 0.000001 0.000001 -0.000000 22.053634 1.010532 -5.502552 9.688816 0.139040 -1.344875 9.691515 0.179852 -1.324121 -17.493752 -6.216080 3.930964 -19.282942 -25.099914 16.812113 0.000000 -0.000000 -0.000000 0.000000 -0.000000 -0.000000 0.000000 -0.000000 -0.000000 0.000000 -0.000000 -0.000000 0.000000 -0.000000 -0.000000 0.000000 -0.000000 -0.000000 0.000000 -0.000000 -0.000000 0.000000 -0.000000 -0.000000 0.000000 -0.000000 -0.000000 0.000000 -0.000000 -0.000000 0.000000 -0.000000 -0.000000 0.000000 -0.000000 -0.000000 0.000000 -0.000000 -0.000000 0.000000 -0.000000 -0.000000 0.000000 -0.000000 -0.000000 0.000000 -0.000000 -0.000000 0.000000 -0.000000 -0.000000 0.000000 -0.000000 -0.000000 0.000000 -0.000000 -0.000000 -10.353901 -11.580196 4.692048 -55.946472 -78.944412 -98.482893 0.000091 -81.078389 0.000086 1.558880 1.394865 25.761761 -1.665943 10.475375 7.161661 4.500561 14.758254 1.259413 0.000000 -0.000004 0.000000 0.039120 0.734323 -6.096744 0.222028 1.737758 -14.560415 0.000001 0.000001 -0.000001 0.099931 1.171173 -9.753165 0.357102 2.192655 -18.497694 0.000000 0.000001 -0.000002 0.260899 1.881032 -15.791534 0.680767 2.990070 -25.647137 0.000001 0.000000 -0.000000 1.264134 5.701796 -14.480672 0.613862 -1.227334 -24.668142 -0.000002 -0.000001 0.000002 0.000000 -0.000001 0.000000 0.975139 0.041501 -5.757052 -76.620010 38.138004 40.283882 0.000009 35.588089 -0.000003 -22.219695 1.809102 26.570006 -2.014198 -11.528546 -7.837546 5.353889 -16.615581 -0.772916 -0.000002 0.000005 -0.000001 0.308645 -2.052467 17.101899 1.482715 -4.296788 38.062346 0.000000 0.000000 -0.000000 0.432247 -2.417683 20.270676 0.806806 -3.255959 27.827374 -0.000000 0.000004 0.000002 0.831112 -3.301551 28.252205 0.060981 -0.920719 7.577770 0.000003 -0.000002 0.000001 1.175888 -3.874143 33.930372 0.002093 0.170665 -0.000023 -0.000003 0.000002 0.000000 0.000000 0.000000 -0.000000 0.000001 0.000001 0.000002 0.000001 0.000001 0.000002 0.000001 0.000001 0.000002 0.000001 0.000001 0.000002 0.000001 0.000001 0.000002 0.000001 0.000001 0.000001 0.000001 0.000001 -0.000001 0.000001 0.000001 -0.000001 -0.000002 -0.000003 -0.000002 -0.000000 0.000001 0.000001 
-13.828285 69.787735 -19.888567 28.277012 36.737439 -26.116219 0.000002 -0.000001 -0.000001 -79.375472 1.047713 6.766475 70.413267 -9.582720 6.653260 -13.077420 -14.029566 0.626220 -0.000000 0.000000 0.000000 0.000000 0.000000 0.000001 -0.000000 0.000000 0.000000 -42.482243 -21.108693 -30.349857 56.143171 -6.700624 -10.693230 -5.002495 -2.156138 8.757802 0.000003 -0.000001 -0.000003 -0.000000 0.000001 0.000003 -0.000002 -0.000001 -0.000002 22.876747 1.062733 -5.765744 9.701751 0.146722 -1.253514 9.703968 0.195611 -1.233829 -17.983164 -6.008532 3.651430 -21.262673 -24.731627 16.098486 0.000001 -0.000000 -0.000000 0.000001 -0.000000 -0.000000 0.000001 -0.000000 -0.000000 0.000001 -0.000000 -0.000000 0.000001 -0.000000 -0.000000 0.000001 -0.000000 -0.000000 0.000001 -0.000000 -0.000000 0.000001 -0.000000 -0.000000 0.000001 -0.000000 -0.000000 0.000001 -0.000000 -0.000000 0.000001 -0.000000 -0.000000 0.000001 -0.000000 -0.000000 0.000001 -0.000000 -0.000000 0.000001 -0.000000 -0.000000 0.000001 -0.000000 -0.000000 0.000001 -0.000000 -0.000000 0.000001 -0.000000 -0.000000 0.000001 -0.000000 -0.000000 0.000001 -0.000000 -0.000000 -9.587989 -11.657884 4.333122 -25.003910 -78.424833 -69.546721 -0.000133 -86.820857 -0.000091 -0.887685 0.346998 28.280975 -1.665938 10.475385 7.161649 4.500558 14.758258 1.259412 0.000001 -0.000002 0.000000 0.034406 0.688950 -5.718590 0.216317 1.715680 -14.371188 0.000002 0.000000 -0.000001 0.093739 1.134622 -9.445812 0.349041 2.168477 -18.286206 0.000001 -0.000000 -0.000006 0.250880 1.845324 -15.484029 0.669552 2.966594 -25.431035 -0.000001 0.000000 -0.000000 1.226408 5.664404 -14.099818 0.612555 -1.230143 -24.642400 -0.000002 0.000001 -0.000003 0.000000 0.000000 0.000001 0.930055 0.146093 -5.487777 -71.937089 33.393949 35.208870 -0.000004 37.313204 -0.000005 -21.691945 1.262178 26.574733 -2.014210 -11.528564 -7.837546 5.353888 -16.615583 -0.772921 0.000001 -0.000001 -0.000007 0.312034 -2.063486 17.196710 1.491285 -4.307658 38.176294 -0.000003 -0.000001 0.000001 0.435520 -2.426471 20.347755 0.809804 -3.261691 27.880448 -0.000003 0.000002 0.000001 0.835566 -3.309807 28.329419 0.080376 -1.056340 8.702522 -0.000001 0.000000 0.000003 1.187293 -3.891094 33.952611 0.000019 0.015744 0.000007 -0.000002 -0.000001 -0.000001 0.000001 -0.000002 -0.000002 -0.000002 0.000001 -0.000002 -0.000002 0.000001 -0.000002 -0.000002 0.000001 -0.000002 -0.000002 0.000001 -0.000002 -0.000002 0.000001 -0.000002 -0.000002 0.000001 -0.000000 -0.000003 0.000001 -0.000000 -0.000003 0.000001 -0.000000 -0.000002 -0.000001 -0.000002 0.000002 -0.000001 -0.000001 
-14.248983 69.220871 -20.468119 29.253861 35.780868 -25.825809 -0.000000 -0.000000 0.000001 -81.533717 2.706648 7.206454 70.575525 -9.570910 6.595407 -12.101184 -14.221503 1.226540 -0.000000 0.000000 0.000000 -0.000000 0.000000 0.000000 0.000001 -0.000000 -0.000001 -44.362424 -21.590279 -31.899886 56.123214 -6.222271 -10.701324 -9.681574 -2.303543 10.428432 -0.000000 -0.000001 -0.000001 0.000001 -0.000000 0.000000 0.000002 -0.000001 0.000000 24.000788 1.092577 -6.075968 9.662938 0.156068 -1.172122 9.664738 0.212081 -1.153579 -18.358638 -5.763974 3.416176 -23.300396 -24.170636 15.427336 -0.000001 -0.000000 0.000000 -0.000001 -0.000000 0.000000 -0.000001 -0.000000 0.000000 -0.000001 -0.000000 0.000000 -0.000001 -0.000000 0.000000 -0.000001 -0.000000 0.000000 -0.000001 -0.000000 0.000000 -0.000001 -0.000000 0.000000 -0.000001 -0.000000 0.000000 -0.000001 -0.000000 0.000000 -0.000001 -0.000000 0.000000 -0.000001 -0.000000 0.000000 -0.000001 -0.000000 0.000000 -0.000001 -0.000000 0.000000 -0.000001 -0.000000 0.000000 -0.000001 -0.000000 0.000000 -0.000001 -0.000000 0.000000 -0.000001 -0.000000 0.000000 -0.000001 -0.000000 0.000000 -8.809906 -11.636359 3.878714 -6.007725 -75.645240 -52.234336 0.006373 -90.656520 0.006522 -2.405052 -0.395669 30.116756 -1.665937 10.475392 7.161659 4.500561 14.758258 1.259410 -0.000000 0.000001 -0.000001 0.031128 0.655419 -5.439403 0.212172 1.699342 -14.231474 0.000002 0.000000 -0.000001 0.089297 1.107622 -9.218921 0.343172 2.150586 -18.130023 0.000001 0.000001 -0.000000 0.243639 1.818925 -15.256966 0.661385 2.949404 -25.272970 -0.000000 -0.000000 -0.000002 1.198726 5.636621 -13.818630 0.611630 -1.232213 -24.623667 -0.000001 -0.000000 0.000001 -0.000001 -0.000001 0.000002 0.891778 0.258299 -5.194088 -67.787462 27.852193 31.002194 -0.000006 40.929249 0.000013 -21.618783 0.597550 26.288357 -2.014204 -11.528581 -7.837545 5.353887 -16.615579 -0.772916 0.000000 -0.000000 -0.000001 0.311212 -2.060808 17.173556 1.489169 -4.304998 38.148454 -0.000000 -0.000002 -0.000003 0.434721 -2.424329 20.328923 0.809078 -3.260277 27.867479 -0.000000 -0.000001 0.000004 0.834465 -3.307774 28.310542 0.102029 -1.189136 9.806772 -0.000001 -0.000003 0.000004 1.192508 -3.898836 33.945982 0.001321 -0.135879 1.115092 -0.000001 -0.000003 -0.000002 -0.000001 0.000000 0.000000 -0.000000 -0.000001 0.000001 -0.000000 -0.000001 0.000001 -0.000000 -0.000001 0.000001 -0.000000 -0.000001 0.000001 -0.000000 -0.000001 0.000001 -0.000000 -0.000001 0.000001 0.000001 -0.000000 0.000003 0.000001 -0.000000 0.000003 0.000001 -0.000001 0.000002 -0.000000 -0.000000 0.000001 
-14.661060 68.765518 -21.040808 29.847452 34.719723 -25.022570 -0.000000 -0.000002 0.000001 -83.199333 4.547697 7.893047 70.514996 -9.542945 6.363524 -11.176364 -14.509005 1.897703 -0.000000 -0.000000 0.000000 -0.000001 0.000002 -0.000000 -0.000001 0.000000 -0.000002 -46.011272 -21.254277 -33.185379 56.115704 -5.682142 -10.645451 -13.403646 -2.596066 12.021135 0.000001 0.000000 -0.000001 0.000002 -0.000002 -0.000003 -0.000000 0.000000 -0.000001 25.343152 1.101951 -6.401763 9.577187 0.166200 -1.106505 9.578653 0.227937 -1.089010 -18.592777 -5.499249 3.248909 -25.377568 -23.459157 14.821224 0.000001 0.000000 -0.000000 0.000001 0.000000 -0.000000 0.000001 0.000000 -0.000000 0.000001 0.000000 -0.000000 0.000001 0.000000 -0.000000 0.000001 0.000000 -0.000000 0.000001 0.000000 -0.000000 0.000001 0.000000 -0.000000 0.000001 0.000000 -0.000000 0.000001 0.000000 -0.000000 0.000001 0.000000 -0.000000 0.000001 0.000000 -0.000000 0.000001 0.000000 -0.000000 0.000001 0.000000 -0.000000 0.000001 0.000000 -0.000000 0.000001 0.000000 -0.000000 0.000001 0.000000 -0.000000 0.000001 0.000000 -0.000000 0.000001 0.000000 -0.000000 -8.067995 -11.520556 3.370528 2.362391 -72.566129 -45.197254 -0.028255 -92.402440 -0.028159 -3.031673 -0.700666 31.182546 -1.665951 10.475384 7.161636 4.500560 14.758258 1.259412 -0.000000 -0.000001 0.000000 0.029290 0.635892 -5.276761 0.209769 1.689827 -14.150068 0.000002 0.000000 -0.000001 0.086761 1.091875 -9.086735 0.339762 2.140177 -18.039044 0.000000 -0.000001 0.000001 0.239447 1.803546 -15.124704 0.656738 2.939562 -25.182581 0.000000 0.000001 -0.000005 1.182632 5.620395 -13.654845 0.611106 -1.233358 -24.613142 -0.000002 0.000000 -0.000002 -0.000003 -0.000001 0.000003 0.858810 0.370922 -4.930445 -64.377231 21.808656 27.765424 -0.000025 46.232000 0.000022 -21.989634 -0.116483 25.728739 -2.014217 -11.528550 -7.837540 5.353888 -16.615583 -0.772923 -0.000000 0.000001 0.000000 0.306368 -2.045084 17.038496 1.477014 -4.289500 37.986152 0.000001 -0.000001 -0.000000 0.430072 -2.411802 20.219139 0.804799 -3.252173 27.791898 0.000001 0.000003 0.000002 0.828106 -3.296009 28.200598 0.125608 -1.318330 10.884976 0.000000 0.000003 0.000002 1.189400 -3.894223 33.912316 0.005774 -0.283423 2.326182 -0.000002 0.000000 0.000001 0.000000 -0.000003 0.000002 -0.000002 0.000001 -0.000001 -0.000002 0.000001 -0.000001 -0.000002 0.000001 -0.000001 -0.000002 0.000001 -0.000001 -0.000002 0.000001 -0.000001 -0.000002 0.000001 -0.000003 0.000000 0.000003 -0.000002 0.000000 0.000003 -0.000002 0.000001 0.000001 -0.000001 -0.000000 -0.000002 0.000001 
